# xmcd
#
# Track frame offsets: 
#        150
#        15427
#        32004
#        52433
#        71695
#        92644
#        112888
#        136926
#        157685
#        178840
#        221505
#        244819
#
# Disc length: 3520 seconds
#
# Revision: 0
# Processed by: cddbd v1.5.2PL0 Copyright (c) Steve Scherf et al.
# Submitted via: ExactAudioCopy v0.99pb5
#
DISCID=9e0dbe0c
DTITLE=Bloodline - Bloodline
DYEAR=1994
DGENRE=Blues-Rock
TTITLE0=Stone Cold Hearted
TTITLE1=Dixie  Peach
TTITLE2=Cell Block
TTITLE3=The Storm
TTITLE4=The Good Luck You Are Having
TTITLE5=Honest Crime
TTITLE6=So Far Away
TTITLE7=Calling Me Back
TTITLE8=Bad Girls
TTITLE9=Since You`re Gone
TTITLE10=Trouble Is My Business
TTITLE11=Get Off Your Back
EXTD=
EXTT0=
EXTT1=
EXTT2=
EXTT3=
EXTT4=
EXTT5=
EXTT6=
EXTT7=
EXTT8=
EXTT9=
EXTT10=
EXTT11=
PLAYORDER=
